<svg xmlns="http://www.w3.org/2000/svg" width="34" height="33" fill="none" viewBox="0 0 34 33"><path fill="#7E8979" d="M28.4044 3.35709L25.1632 3.35709L25.1632 1.73198C25.1632 1.30097 24.9925 0.887615 24.6885 0.582847C24.3846 0.278078 23.9724 0.106861 23.5426 0.106861C23.1128 0.106861 22.7006 0.278078 22.3966 0.582846C22.0927 0.887615 21.922 1.30097 21.922 1.73198L21.922 3.35709L12.1983 3.35709L12.1983 1.73198C12.1983 1.30097 12.0276 0.887613 11.7236 0.582845C11.4197 0.278076 11.0075 0.106859 10.5777 0.106859C10.1479 0.106859 9.73566 0.278076 9.43173 0.582844C9.12781 0.887612 8.95707 1.30097 8.95707 1.73197L8.95707 3.35709L5.71584 3.35709C4.4264 3.35709 3.18977 3.87074 2.278 4.78505C1.36623 5.69935 0.854003 6.93941 0.854002 8.23244L0.853999 27.7338C0.853999 29.0268 1.36623 30.2669 2.278 31.1812C3.18977 32.0955 4.4264 32.6092 5.71584 32.6092L28.4044 32.6092C29.6939 32.6092 30.9305 32.0955 31.8423 31.1812C32.754 30.2669 33.2663 29.0269 33.2663 27.7338L33.2663 8.23244C33.2663 6.93942 32.754 5.69936 31.8423 4.78505C30.9305 3.87075 29.6939 3.35709 28.4044 3.35709ZM30.025 27.7338C30.025 28.1648 29.8543 28.5782 29.5504 28.883C29.2464 29.1877 28.8342 29.3589 28.4044 29.3589L5.71584 29.3589C5.28602 29.3589 4.87382 29.1877 4.56989 28.883C4.26597 28.5782 4.09522 28.1648 4.09522 27.7338L4.09523 16.358L30.025 16.358L30.025 27.7338ZM30.025 13.1078L4.09523 13.1078L4.09523 8.23244C4.09523 7.80143 4.26597 7.38807 4.5699 7.08331C4.87382 6.77854 5.28603 6.60732 5.71584 6.60732L8.95707 6.60732L8.95707 8.23244C8.95707 8.66344 9.12781 9.0768 9.43173 9.38157C9.73566 9.68634 10.1479 9.85755 10.5777 9.85755C11.0075 9.85755 11.4197 9.68634 11.7236 9.38157C12.0275 9.0768 12.1983 8.66345 12.1983 8.23244L12.1983 6.60732L21.922 6.60732L21.922 8.23244C21.922 8.66345 22.0927 9.0768 22.3966 9.38157C22.7006 9.68634 23.1128 9.85756 23.5426 9.85756C23.9724 9.85756 24.3846 9.68634 24.6885 9.38157C24.9925 9.0768 25.1632 8.66345 25.1632 8.23244L25.1632 6.60732L28.4044 6.60733C28.8342 6.60733 29.2464 6.77854 29.5504 7.08331C29.8543 7.38808 30.025 7.80143 30.025 8.23244L30.025 13.1078Z"/></svg>