<svg width="28" height="35" viewBox="0 0 28 35" fill="none" xmlns="http://www.w3.org/2000/svg">
<path d="M24.992 3.94531L21.3456 3.94531L21.3456 2.72648C21.3456 2.07997 21.0895 1.45993 20.6336 1.00278C20.1777 0.54563 19.5594 0.288804 18.9147 0.288804L9.19097 0.288804C8.54625 0.288804 7.92793 0.545629 7.47204 1.00278C7.01616 1.45993 6.76004 2.07997 6.76004 2.72648L6.76004 3.94531L3.11366 3.94531C2.46894 3.94531 1.85063 4.20214 1.39474 4.65929C0.938853 5.11644 0.682739 5.73648 0.682739 6.38299L0.682737 31.9786C0.682737 32.6251 0.938852 33.2451 1.39474 33.7023C1.85062 34.1594 2.46894 34.4162 3.11366 34.4162L24.992 34.4162C25.6367 34.4162 26.255 34.1594 26.7109 33.7023C27.1668 33.2451 27.4229 32.6251 27.4229 31.9786L27.4229 6.38299C27.4229 5.73648 27.1668 5.11644 26.7109 4.65929C26.255 4.20214 25.6367 3.94531 24.992 3.94531ZM9.19097 2.72648L18.9147 2.72648L18.9147 7.60182L9.19097 7.60182L9.19097 2.72648ZM24.992 31.9786L3.11366 31.9786L3.11366 6.38299L6.76004 6.38299L6.76004 10.0395L21.3456 10.0395L21.3456 6.38299L24.992 6.38299L24.992 31.9786Z" fill="#7E8979"/>
<path d="M6.76013 19.7902L16.4838 19.7902L16.4838 22.2279L6.76013 22.2279L6.76013 19.7902Z" fill="#7E8979"/>
<path d="M6.76013 13.696L21.3457 13.696L21.3457 16.1337L6.76013 16.1337L6.76013 13.696Z" fill="#7E8979"/>
<path d="M6.76013 25.8844L12.8374 25.8844L12.8374 28.3221L6.76013 28.3221L6.76013 25.8844Z" fill="#7E8979"/>
</svg>
