<svg width="22" height="16" viewBox="0 0 22 16" fill="none" xmlns="http://www.w3.org/2000/svg">
<path d="M21.122 13.9618C21.122 14.5397 20.6612 15.0072 20.094 15.0072H11.818C11.5453 15.0072 11.2838 14.8971 11.091 14.701C10.8982 14.505 10.7899 14.239 10.7899 13.9618C10.7899 13.6845 10.8982 13.4186 11.091 13.2225C11.2838 13.0264 11.5453 12.9163 11.818 12.9163H20.094C20.6623 12.9163 21.122 13.3839 21.122 13.9618Z" fill="#48834B"/>
<path d="M21.122 7.65216C21.122 8.23006 20.6612 8.69763 20.094 8.69763H1.48581C1.21316 8.69763 0.951668 8.58748 0.758872 8.39142C0.566075 8.19536 0.457764 7.92944 0.457764 7.65216C0.457764 7.37488 0.566075 7.10896 0.758872 6.9129C0.951668 6.71684 1.21316 6.60669 1.48581 6.60669H20.094C20.6622 6.60669 21.122 7.07531 21.122 7.65216Z" fill="#48834B"/>
<path d="M20.0939 2.38803C20.3666 2.38803 20.6281 2.27788 20.8208 2.08182C21.0136 1.88575 21.122 1.61983 21.122 1.34256C21.122 1.06528 21.0136 0.799363 20.8208 0.6033C20.6281 0.407236 20.3666 0.297089 20.0939 0.297089H7.68503C7.55002 0.297089 7.41634 0.324131 7.29161 0.37667C7.16688 0.42921 7.05355 0.506219 6.95809 0.6033C6.86263 0.700381 6.7869 0.815633 6.73524 0.942475C6.68357 1.06932 6.65698 1.20527 6.65698 1.34256C6.65698 1.47985 6.68357 1.6158 6.73524 1.74264C6.7869 1.86949 6.86263 1.98474 6.95809 2.08182C7.05355 2.1789 7.16688 2.25591 7.29161 2.30845C7.41634 2.36099 7.55002 2.38803 7.68503 2.38803H20.0939Z" fill="#48834B"/>
</svg>
